<svg width="33" height="32" viewBox="0 0 33 32" fill="none" xmlns="http://www.w3.org/2000/svg">
<path fill-rule="evenodd" clip-rule="evenodd" d="M32.5 16.0002C32.5 24.8366 25.3366 32 16.4998 32C7.66343 32 0.5 24.8366 0.5 16.0002C0.5 7.16343 7.66343 0 16.4998 0C15.3258 0 14.1553 0.129352 13.0096 0.385508L13.7423 3.6636C8.08845 4.92175 3.86156 9.96712 3.86156 16.0002C3.86156 22.9801 9.51992 28.6384 16.4998 28.6384C23.4801 28.6384 29.1384 22.9801 29.1384 16.0002H32.5ZM16.4998 0C25.3366 0 32.5 7.16343 32.5 16.0002C32.5 14.8261 32.3706 13.6556 32.1145 12.5099L28.8367 13.2423C27.5786 7.58876 22.5329 3.36156 16.4998 3.36156V0ZM16.4998 25.4594C20.3928 25.4594 23.7369 23.1078 25.1881 19.7472L22.1069 18.404C21.174 20.5772 19.0146 22.0991 16.4998 22.0991C14.0116 22.0991 11.8712 20.609 10.9227 18.4725L7.84153 19.8157C9.30837 23.1394 12.6333 25.4594 16.4998 25.4594Z" fill="black"/>
</svg>
