<svg width="24" height="24" viewBox="0 0 24 24" fill="none" xmlns="http://www.w3.org/2000/svg">
<g clip-path="url(#clip0_224_3122)">
<path fill-rule="evenodd" clip-rule="evenodd" d="M2.40676 13.0579C1.82209 12.4724 1.82209 11.5276 2.40676 10.9421C4.21819 9.12778 7.75152 5.58897 8.04048 5.30001C8.43048 4.91001 9.07048 4.91001 9.46048 5.30001C9.85048 5.69001 9.85048 6.32001 9.46048 6.71001L6.74377 9.42672C6.20938 9.96111 5.61701 10.4323 4.97627 10.8331L4.6336 11.0474L4.84166 11.254C5.57542 11.0854 6.32665 11 7.08109 11H21.0029C21.5552 11 22.0029 11.4477 22.0029 12C22.0029 12.5523 21.5552 13 21.0029 13H7.08109C6.32665 13 5.57542 12.9146 4.84166 12.746L4.6336 12.9526L4.97627 13.1669C5.61701 13.5677 6.20938 14.0389 6.74377 14.5733L9.46048 17.29C9.85048 17.68 9.85048 18.31 9.46048 18.7C9.07048 19.09 8.43048 19.09 8.04048 18.7C7.75152 18.411 4.2182 14.8722 2.40676 13.0579Z" fill="black"/>
</g>
<defs>
<clipPath id="clip0_224_3122">
<rect width="24" height="24" fill="white"/>
</clipPath>
</defs>
</svg>
