<svg width="24" height="24" viewBox="0 0 24 24" fill="none" xmlns="http://www.w3.org/2000/svg">
<path d="M15.3196 5.9346C15.3195 6.1998 15.2141 6.45411 15.0266 6.6416L10.4406 11.2276C10.2581 11.4177 10.1562 11.6711 10.1562 11.9346C10.1562 12.1981 10.2581 12.4515 10.4406 12.6416L15.0266 17.2276C15.2087 17.4162 15.3095 17.6688 15.3072 17.931C15.305 18.1932 15.1998 18.444 15.0144 18.6294C14.829 18.8148 14.5782 18.92 14.316 18.9223C14.0538 18.9246 13.8012 18.8238 13.6126 18.6416L9.02657 14.0556C8.4811 13.484 8.17676 12.7242 8.17676 11.9341C8.17676 11.144 8.4811 10.3842 9.02657 9.8126L13.6126 5.2276C13.7524 5.08779 13.9306 4.99259 14.1245 4.95402C14.3185 4.91545 14.5195 4.93525 14.7022 5.01092C14.8849 5.08659 15.0411 5.21473 15.151 5.37914C15.2609 5.54355 15.3195 5.73685 15.3196 5.9346Z" fill="black"/>
</svg>
