<svg width="24" height="24" viewBox="0 0 24 24" fill="none" xmlns="http://www.w3.org/2000/svg">
<path d="M18.4837 15C18.2183 14.9999 17.9637 14.8967 17.7761 14.7129L13.186 10.2185C12.9957 10.0397 12.7421 9.93984 12.4783 9.93984C12.2146 9.93984 11.961 10.0397 11.7707 10.2185L7.1806 14.7129C6.99183 14.8914 6.739 14.9902 6.47657 14.9879C6.21414 14.9857 5.9631 14.8826 5.77753 14.7009C5.59196 14.5192 5.48669 14.2734 5.48441 14.0165C5.48213 13.7595 5.58302 13.512 5.76534 13.3271L10.3554 8.83282C10.9276 8.29825 11.688 8 12.4788 8C13.2697 8 14.0301 8.29825 14.6022 8.83282L19.1913 13.3271C19.3313 13.4642 19.4266 13.6388 19.4652 13.8289C19.5038 14.0189 19.4839 14.216 19.4082 14.395C19.3325 14.574 19.2042 14.7271 19.0396 14.8348C18.8751 14.9425 18.6816 15 18.4837 15Z" fill="black"/>
</svg>
