<svg width="24" height="24" viewBox="0 0 24 24" fill="none" xmlns="http://www.w3.org/2000/svg">
<path d="M18.4491 9.28578C18.2614 9.10279 18.0069 9 17.7415 9C17.4761 9 17.2216 9.10279 17.0339 9.28578L12.4438 13.762C12.2535 13.9401 11.9999 14.0396 11.7361 14.0396C11.4724 14.0396 11.2188 13.9401 11.0285 13.762L6.43841 9.28578C6.24964 9.10798 5.99682 9.0096 5.73438 9.01182C5.47195 9.01405 5.22092 9.1167 5.03534 9.29767C4.84977 9.47864 4.74451 9.72345 4.74223 9.97937C4.73994 10.2353 4.84083 10.4818 5.02315 10.6659L9.61225 15.1422C9.89108 15.4141 10.2221 15.6299 10.5865 15.7771C10.9508 15.9242 11.3413 16 11.7356 16C12.13 16 12.5205 15.9242 12.8848 15.7771C13.2492 15.6299 13.5802 15.4141 13.859 15.1422L18.4491 10.6659C18.6368 10.4829 18.7422 10.2347 18.7422 9.97586C18.7422 9.71704 18.6368 9.46882 18.4491 9.28578Z" fill="black"/>
</svg>
