<svg width="24" height="24" viewBox="0 0 24 24" fill="none" xmlns="http://www.w3.org/2000/svg">
<path d="M9.78594 15.4191L5.86694 11.5001C5.67941 11.3126 5.42511 11.2073 5.15994 11.2073C4.89478 11.2073 4.64047 11.3126 4.45294 11.5001C4.26547 11.6876 4.16016 11.9419 4.16016 12.2071C4.16016 12.4722 4.26547 12.7265 4.45294 12.9141L8.37194 16.8331C8.55767 17.0189 8.77819 17.1662 9.02089 17.2668C9.26359 17.3674 9.52373 17.4191 9.78644 17.4191C10.0492 17.4191 10.3093 17.3674 10.552 17.2668C10.7947 17.1662 11.0152 17.0189 11.2009 16.8331L20.4529 7.58105C20.6404 7.39353 20.7457 7.13922 20.7457 6.87405C20.7457 6.60889 20.6404 6.35458 20.4529 6.16705C20.2654 5.97958 20.0111 5.87427 19.7459 5.87427C19.4808 5.87427 19.2265 5.97958 19.0389 6.16705L9.78594 15.4191Z" fill="black"/>
</svg>
