<svg width="24" height="24" viewBox="0 0 24 24" fill="none" xmlns="http://www.w3.org/2000/svg">
<g clip-path="url(#clip0_134_423)">
<path d="M22.2913 4.29429L8.47229 18.1123C8.37938 18.2056 8.26897 18.2796 8.14738 18.3301C8.0258 18.3806 7.89544 18.4066 7.76379 18.4066C7.63214 18.4066 7.50178 18.3806 7.38019 18.3301C7.25861 18.2796 7.1482 18.2056 7.05529 18.1123L1.71129 12.7633C1.61838 12.67 1.50797 12.596 1.38638 12.5455C1.2648 12.495 1.13444 12.469 1.00279 12.469C0.871135 12.469 0.740777 12.495 0.619195 12.5455C0.497612 12.596 0.387199 12.67 0.294289 12.7633C0.201012 12.8562 0.127 12.9666 0.0764983 13.0882C0.0259967 13.2098 0 13.3401 0 13.4718C0 13.6034 0.0259967 13.7338 0.0764983 13.8554C0.127 13.977 0.201012 14.0874 0.294289 14.1803L5.64029 19.5253C6.20424 20.0882 6.96849 20.4043 7.76529 20.4043C8.56209 20.4043 9.32634 20.0882 9.89029 19.5253L23.7083 5.71029C23.8014 5.6174 23.8753 5.50705 23.9257 5.38556C23.9761 5.26407 24.0021 5.13382 24.0021 5.00229C24.0021 4.87075 23.9761 4.74051 23.9257 4.61902C23.8753 4.49753 23.8014 4.38718 23.7083 4.29429C23.6154 4.20101 23.505 4.127 23.3834 4.0765C23.2618 4.026 23.1314 4 22.9998 4C22.8681 4 22.7378 4.026 22.6162 4.0765C22.4946 4.127 22.3842 4.20101 22.2913 4.29429Z" fill="black"/>
</g>
<defs>
<clipPath id="clip0_134_423">
<rect width="24" height="24" fill="white"/>
</clipPath>
</defs>
</svg>
