<svg width="20" height="20" viewBox="0 0 20 20" fill="none" xmlns="http://www.w3.org/2000/svg">
<g clip-path="url(#clip0_134_390)">
<path d="M18.3542 1.64606C17.833 1.12563 17.1266 0.833328 16.39 0.833328C15.6534 0.833328 14.947 1.12563 14.4258 1.64606L1.95645 14.1154C1.59937 14.4704 1.31624 14.8928 1.12345 15.358C0.930658 15.8232 0.832027 16.322 0.833263 16.8256V18.3996C0.833263 18.6029 0.914039 18.7979 1.05782 18.9417C1.2016 19.0855 1.39661 19.1663 1.59995 19.1663H3.17394C3.67747 19.1677 4.17628 19.0692 4.64149 18.8766C5.1067 18.6839 5.52908 18.4009 5.88416 18.0438L18.3542 5.57377C18.8744 5.05257 19.1666 4.34629 19.1666 3.60991C19.1666 2.87354 18.8744 2.16725 18.3542 1.64606ZM4.80007 16.9598C4.36767 17.3893 3.78343 17.6311 3.17394 17.6329H2.36663V16.8256C2.36585 16.5234 2.42501 16.2241 2.54069 15.945C2.65637 15.6659 2.82626 15.4125 3.04054 15.1995L12.5037 5.73631L14.2671 7.49967L4.80007 16.9598ZM17.2694 4.48968L15.3481 6.41175L13.5847 4.65222L15.5068 2.73015C15.6226 2.61461 15.76 2.52302 15.9112 2.46059C16.0623 2.39816 16.2243 2.36612 16.3879 2.3663C16.5515 2.36647 16.7134 2.39887 16.8644 2.46163C17.0155 2.52438 17.1527 2.61628 17.2682 2.73206C17.3838 2.84785 17.4754 2.98525 17.5378 3.13644C17.6002 3.28762 17.6323 3.44962 17.6321 3.61319C17.6319 3.77675 17.5995 3.93868 17.5368 4.08973C17.474 4.24078 17.3821 4.37798 17.2663 4.49351L17.2694 4.48968Z" fill="black"/>
</g>
<defs>
<clipPath id="clip0_134_390">
<rect width="20" height="20" fill="white"/>
</clipPath>
</defs>
</svg>
