<svg width="24" height="24" viewBox="0 0 24 24" fill="none" xmlns="http://www.w3.org/2000/svg">
<g clip-path="url(#clip0_134_380)">
<path d="M1 4.25H3.736C3.95064 5.03973 4.41917 5.73689 5.06933 6.23393C5.71948 6.73097 6.51512 7.00026 7.3335 7.00026C8.15188 7.00026 8.94752 6.73097 9.59767 6.23393C10.2478 5.73689 10.7164 5.03973 10.931 4.25H23C23.2652 4.25 23.5196 4.14464 23.7071 3.95711C23.8946 3.76957 24 3.51522 24 3.25C24 2.98478 23.8946 2.73043 23.7071 2.54289C23.5196 2.35536 23.2652 2.25 23 2.25H10.931C10.7164 1.46027 10.2478 0.763105 9.59767 0.266069C8.94752 -0.230968 8.15188 -0.500259 7.3335 -0.500259C6.51512 -0.500259 5.71948 -0.230968 5.06933 0.266069C4.41917 0.763105 3.95064 1.46027 3.736 2.25H1C0.734784 2.25 0.48043 2.35536 0.292893 2.54289C0.105357 2.73043 0 2.98478 0 3.25C0 3.51522 0.105357 3.76957 0.292893 3.95711C0.48043 4.14464 0.734784 4.25 1 4.25ZM7.333 1.5C7.67912 1.5 8.01746 1.60264 8.30525 1.79493C8.59303 1.98722 8.81734 2.26053 8.94979 2.5803C9.08224 2.90007 9.1169 3.25194 9.04937 3.59141C8.98185 3.93087 8.81518 4.24269 8.57044 4.48744C8.3257 4.73218 8.01388 4.89885 7.67441 4.96637C7.33494 5.0339 6.98307 4.99924 6.6633 4.86679C6.34353 4.73434 6.07022 4.51003 5.87793 4.22225C5.68564 3.93446 5.583 3.59612 5.583 3.25C5.58353 2.78603 5.76807 2.34122 6.09615 2.01315C6.42422 1.68507 6.86903 1.50053 7.333 1.5Z" fill="black"/>
<path d="M23 10.5H20.264C20.0497 9.71008 19.5814 9.01267 18.9313 8.51543C18.2812 8.01818 17.4855 7.74876 16.667 7.74876C15.8485 7.74876 15.0528 8.01818 14.4027 8.51543C13.7526 9.01267 13.2843 9.71008 13.07 10.5H1C0.734784 10.5 0.48043 10.6054 0.292893 10.7929C0.105357 10.9804 0 11.2348 0 11.5C0 11.7652 0.105357 12.0196 0.292893 12.2071C0.48043 12.3946 0.734784 12.5 1 12.5H13.07C13.2843 13.2899 13.7526 13.9873 14.4027 14.4846C15.0528 14.9818 15.8485 15.2512 16.667 15.2512C17.4855 15.2512 18.2812 14.9818 18.9313 14.4846C19.5814 13.9873 20.0497 13.2899 20.264 12.5H23C23.2652 12.5 23.5196 12.3946 23.7071 12.2071C23.8946 12.0196 24 11.7652 24 11.5C24 11.2348 23.8946 10.9804 23.7071 10.7929C23.5196 10.6054 23.2652 10.5 23 10.5ZM16.667 13.25C16.3209 13.25 15.9825 13.1474 15.6948 12.9551C15.407 12.7628 15.1827 12.4895 15.0502 12.1697C14.9178 11.8499 14.8831 11.4981 14.9506 11.1586C15.0181 10.8191 15.1848 10.5073 15.4296 10.2626C15.6743 10.0178 15.9861 9.85115 16.3256 9.78362C16.6651 9.7161 17.0169 9.75076 17.3367 9.88321C17.6565 10.0157 17.9298 10.24 18.1221 10.5278C18.3144 10.8155 18.417 11.1539 18.417 11.5C18.4165 11.964 18.2319 12.4088 17.9039 12.7369C17.5758 13.0649 17.131 13.2495 16.667 13.25Z" fill="black"/>
<path d="M23 18.75H10.931C10.7164 17.9603 10.2478 17.2631 9.59767 16.7661C8.94752 16.269 8.15188 15.9997 7.3335 15.9997C6.51512 15.9997 5.71948 16.269 5.06933 16.7661C4.41917 17.2631 3.95064 17.9603 3.736 18.75H1C0.734784 18.75 0.48043 18.8554 0.292893 19.0429C0.105357 19.2304 0 19.4848 0 19.75C0 20.0152 0.105357 20.2696 0.292893 20.4571C0.48043 20.6446 0.734784 20.75 1 20.75H3.736C3.95064 21.5397 4.41917 22.2369 5.06933 22.7339C5.71948 23.231 6.51512 23.5003 7.3335 23.5003C8.15188 23.5003 8.94752 23.231 9.59767 22.7339C10.2478 22.2369 10.7164 21.5397 10.931 20.75H23C23.2652 20.75 23.5196 20.6446 23.7071 20.4571C23.8946 20.2696 24 20.0152 24 19.75C24 19.4848 23.8946 19.2304 23.7071 19.0429C23.5196 18.8554 23.2652 18.75 23 18.75ZM7.333 21.5C6.98688 21.5 6.64854 21.3974 6.36075 21.2051C6.07297 21.0128 5.84866 20.7395 5.71621 20.4197C5.58376 20.0999 5.5491 19.7481 5.61663 19.4086C5.68415 19.0691 5.85082 18.7573 6.09556 18.5126C6.3403 18.2678 6.65213 18.1012 6.99159 18.0336C7.33106 17.9661 7.68293 18.0008 8.0027 18.1332C8.32247 18.2657 8.59578 18.49 8.78807 18.7778C8.98036 19.0655 9.083 19.4039 9.083 19.75C9.08221 20.2139 8.89758 20.6585 8.56956 20.9866C8.24154 21.3146 7.79689 21.4992 7.333 21.5Z" fill="black"/>
</g>
<defs>
<clipPath id="clip0_134_380">
<rect width="24" height="24" fill="white"/>
</clipPath>
</defs>
</svg>
