<svg width="24" height="24" viewBox="0 0 24 24" fill="none" xmlns="http://www.w3.org/2000/svg">
<path fill-rule="evenodd" clip-rule="evenodd" d="M11.8978 19.9477C13.4481 19.1482 19 15.9075 19 10.5C19 6.35789 15.6421 3.00002 11.5 3.00002C7.35786 3.00002 4 6.35789 4 10.5C4 15.9075 9.55194 19.1482 11.1022 19.9477C11.3554 20.0782 11.6446 20.0783 11.8978 19.9477ZM11.5 13.7142C13.2752 13.7142 14.7143 12.2752 14.7143 10.5C14.7143 8.72476 13.2752 7.28568 11.5 7.28568C9.72481 7.28568 8.28572 8.72476 8.28572 10.5C8.28572 12.2752 9.72481 13.7142 11.5 13.7142Z" fill="#1A1A1A"/>
</svg>
