<svg width="24" height="24" viewBox="0 0 24 24" fill="none" xmlns="http://www.w3.org/2000/svg">
<path d="M12.0211 3.51463C11.756 3.514 11.5014 3.61872 11.3134 3.80575C11.1255 3.99278 11.0195 4.24681 11.0188 4.51197L11.0026 10.9975L4.51699 10.9813C4.25183 10.9807 3.99727 11.0854 3.80931 11.2724C3.62134 11.4595 3.51535 11.7135 3.51465 11.9787C3.51402 12.2438 3.61874 12.4984 3.80577 12.6864C3.9928 12.8743 4.24683 12.9803 4.51199 12.981L10.9976 12.9972L10.9813 19.4828C10.9807 19.748 11.0854 20.0025 11.2725 20.1905C11.4595 20.3784 11.7135 20.4844 11.9787 20.4851C12.2439 20.4858 12.4984 20.381 12.6864 20.194C12.8743 20.007 12.9803 19.753 12.981 19.4878L12.9972 13.0022L19.4828 13.0184C19.748 13.0191 20.0025 12.9143 20.1905 12.7273C20.3785 12.5403 20.4845 12.2863 20.4852 12.0211C20.4858 11.7559 20.3811 11.5014 20.194 11.3134C20.007 11.1254 19.753 11.0195 19.4878 11.0188L13.0022 11.0025L13.0185 4.51697C13.0191 4.25181 12.9144 3.99725 12.7273 3.80929C12.5403 3.62132 12.2863 3.51533 12.0211 3.51463Z" fill="black"/>
</svg>
