<svg width="24" height="24" viewBox="0 0 24 24" fill="none" xmlns="http://www.w3.org/2000/svg">
<path fill-rule="evenodd" clip-rule="evenodd" d="M13.9078 3.70711C13.5173 3.31658 12.8841 3.31658 12.4936 3.70711L10.5076 5.69311C10.117 6.08364 10.117 6.7168 10.5076 7.10733L15.8938 12.4936C16.2843 12.8841 16.9175 12.8841 17.308 12.4936L19.294 10.5075C19.6845 10.117 19.6845 9.48386 19.294 9.09334L13.9078 3.70711ZM10.5076 7.10734C10.117 6.71681 9.48387 6.71681 9.09334 7.10734L3.70711 12.4936C3.31659 12.8841 3.31659 13.5173 3.70711 13.9078L9.09334 19.294C9.48387 19.6845 10.117 19.6845 10.5076 19.294L15.8938 13.9078C16.2843 13.5173 16.2843 12.8841 15.8938 12.4936L10.5076 7.10734Z" fill="#1A1A1A"/>
<rect x="11.3989" y="7.2876" width="6" height="1" rx="0.5" transform="rotate(45 11.3989 7.2876)" fill="white"/>
</svg>
