<svg width="24" height="24" viewBox="0 0 24 24" fill="none" xmlns="http://www.w3.org/2000/svg">
<path fill-rule="evenodd" clip-rule="evenodd" d="M3 12C3 7.02944 7.02944 3 12 3C16.9706 3 21 7.02944 21 12C21 16.9706 16.9706 21 12 21C7.02944 21 3 16.9706 3 12ZM12 1C5.92487 1 1 5.92487 1 12C1 18.0751 5.92487 23 12 23C18.0751 23 23 18.0751 23 12C23 5.92487 18.0751 1 12 1ZM13 9C13 8.44771 12.5523 8 12 8C11.4477 8 11 8.44771 11 9V12.25C11 12.9404 11.5596 13.5 12.25 13.5H16.5C17.0523 13.5 17.5 13.0523 17.5 12.5C17.5 11.9477 17.0523 11.5 16.5 11.5H13V9Z" fill="#222222"/>
</svg>
