<svg width="24" height="24" viewBox="0 0 24 24" fill="none" xmlns="http://www.w3.org/2000/svg">
<g clip-path="url(#clip0_134_406)">
<path fill-rule="evenodd" clip-rule="evenodd" d="M13.0735 2.93546C12.6312 2.051 11.3691 2.051 10.9269 2.93546L2.16292 20.4633C1.76398 21.2612 2.34417 22.2 3.23623 22.2H20.7641C21.6562 22.2 22.2363 21.2612 21.8374 20.4633L13.0735 2.93546ZM9.49577 2.21992C10.5276 0.156184 13.4727 0.156186 14.5046 2.21992L23.2685 19.7478C24.1994 21.6095 22.8456 23.8 20.7641 23.8H3.23623C1.15476 23.8 -0.199028 21.6095 0.731834 19.7478L9.49577 2.21992ZM12.0002 20.81C11.5583 20.81 11.2002 20.4518 11.2002 20.01V20C11.2002 19.5582 11.5583 19.2 12.0002 19.2C12.442 19.2 12.8002 19.5582 12.8002 20V20.01C12.8002 20.4518 12.442 20.81 12.0002 20.81ZM11.2002 17C11.2002 17.4418 11.5583 17.8 12.0002 17.8C12.442 17.8 12.8002 17.4418 12.8002 17V7.99998C12.8002 7.55816 12.442 7.19998 12.0002 7.19998C11.5583 7.19998 11.2002 7.55816 11.2002 7.99998V17Z" fill="black"/>
</g>
<defs>
<clipPath id="clip0_134_406">
<rect width="24" height="24" fill="white"/>
</clipPath>
</defs>
</svg>
