<svg width="86" height="50" viewBox="0 0 86 50" fill="none" xmlns="http://www.w3.org/2000/svg">
<path fill-rule="evenodd" clip-rule="evenodd" d="M42.5 25.0002C42.5 33.8366 35.3366 41 26.4998 41C17.6634 41 10.5 33.8366 10.5 25.0002C10.5 16.1634 17.6634 9 26.4998 9C25.3258 9 24.1553 9.12935 23.0096 9.38551L23.7423 12.6636C18.0884 13.9218 13.8616 18.9671 13.8616 25.0002C13.8616 31.9801 19.5199 37.6384 26.4998 37.6384C33.4801 37.6384 39.1384 31.9801 39.1384 25.0002H42.5ZM26.4998 9C35.3366 9 42.5 16.1634 42.5 25.0002C42.5 23.8261 42.3706 22.6556 42.1145 21.5099L38.8367 22.2423C37.5786 16.5888 32.5329 12.3616 26.4998 12.3616V9ZM26.4998 34.4594C30.3928 34.4594 33.7369 32.1078 35.1881 28.7472L32.1069 27.404C31.174 29.5772 29.0146 31.0991 26.4998 31.0991C24.0116 31.0991 21.8712 29.609 20.9227 27.4725L17.8415 28.8157C19.3084 32.1394 22.6333 34.4594 26.4998 34.4594Z" fill="black"/>
<path fill-rule="evenodd" clip-rule="evenodd" d="M51.5 12.2V36H55.5912V12.2H51.5ZM58.9649 12.2V36H64.1361C70.631 36 75.3003 31.7564 75.3003 23.9806C75.3003 15.2126 70.6655 12.2 64.4756 12.2H58.9649ZM63.8143 32.7838H63.0695V15.4197H64.1503C68.2791 15.4197 71.1543 17.5241 71.1543 23.9141C71.1401 29.8029 68.2307 32.7838 63.8005 32.7838H63.8143Z" fill="black"/>
</svg>
